<svg width="475" height="475" viewBox="0 0 475 475" fill="none" xmlns="http://www.w3.org/2000/svg">
<g clip-path="url(#clip0_140_3)">
<path d="M43.6823 312.471H431.682" stroke="white" stroke-width="6"/>
<circle cx="237.43" cy="128.454" r="11.4831" stroke="white" stroke-width="3"/>
<path d="M242.853 136.889C242.848 137.549 242.842 138.499 242.832 139.864L242.598 171.271L240.731 422.525V422.537C240.731 423.109 240.375 423.999 239.637 424.791C238.909 425.573 238.059 425.99 237.353 425.99C236.649 425.99 235.804 425.575 235.077 424.793C234.388 424.052 234.027 423.218 233.981 422.639L233.976 422.525C233.972 421.965 233.968 421.405 233.964 420.847C233.959 420.288 233.955 419.73 233.951 419.174C233.947 418.617 233.943 418.062 233.939 417.508C233.935 416.954 233.931 416.401 233.926 415.849C233.922 415.297 233.919 414.745 233.915 414.195C233.911 413.645 233.906 413.096 233.902 412.549C233.894 411.456 233.886 410.36 233.878 409.275C233.874 408.732 233.87 408.189 233.866 407.647C233.862 407.106 233.857 406.566 233.853 406.027C233.849 405.488 233.845 404.95 233.841 404.413C233.837 403.876 233.834 403.34 233.83 402.806C233.826 402.271 233.822 401.737 233.818 401.204C233.814 400.671 233.81 400.139 233.806 399.608C233.802 399.078 233.798 398.549 233.794 398.02C233.79 397.492 233.786 396.965 233.782 396.438C233.778 395.912 233.774 395.386 233.77 394.862C233.766 394.338 233.763 393.815 233.759 393.293C233.756 392.771 233.752 392.249 233.748 391.729C233.744 391.21 233.74 390.691 233.736 390.173C233.732 389.655 233.728 389.138 233.724 388.622C233.72 388.106 233.716 387.592 233.713 387.078C233.709 386.564 233.706 386.051 233.702 385.54C233.698 385.029 233.694 384.518 233.69 384.009C233.686 383.499 233.682 382.991 233.678 382.483C233.675 381.976 233.671 381.47 233.668 380.965C233.664 380.459 233.66 379.954 233.656 379.451C233.652 378.948 233.649 378.446 233.645 377.945C233.641 377.444 233.637 376.943 233.633 376.444C233.63 375.945 233.626 375.447 233.623 374.95C233.619 374.453 233.616 373.957 233.612 373.462C233.608 372.967 233.604 372.473 233.6 371.98C233.597 371.488 233.593 370.996 233.59 370.505C233.586 370.014 233.582 369.524 233.579 369.035C233.571 368.035 233.565 367.106 233.557 366.114C233.554 365.63 233.55 365.146 233.547 364.663C233.543 364.18 233.539 363.698 233.536 363.218C233.532 362.737 233.529 362.258 233.525 361.779C233.521 361.301 233.518 360.823 233.514 360.347C233.511 359.87 233.507 359.394 233.504 358.92C233.5 358.445 233.496 357.971 233.493 357.499C233.489 357.026 233.486 356.554 233.482 356.084C233.479 355.613 233.476 355.143 233.472 354.675C233.469 354.206 233.465 353.739 233.462 353.272C233.458 352.806 233.454 352.34 233.451 351.876C233.447 351.411 233.445 350.947 233.441 350.484C233.438 350.022 233.434 349.56 233.43 349.1C233.427 348.639 233.424 348.179 233.421 347.721C233.417 347.262 233.413 346.805 233.41 346.349C233.406 345.892 233.403 345.436 233.4 344.981C233.397 344.527 233.394 344.073 233.39 343.62C233.387 343.167 233.383 342.715 233.38 342.265C233.376 341.814 233.373 341.365 233.37 340.916C233.366 340.467 233.363 340.019 233.36 339.572C233.357 339.126 233.354 338.68 233.35 338.235C233.347 337.79 233.343 337.346 233.34 336.903C233.336 336.46 233.333 336.018 233.33 335.577C233.326 335.136 233.323 334.697 233.32 334.258C233.317 333.819 233.313 333.38 233.31 332.943C233.307 332.506 233.304 332.07 233.3 331.635C233.297 331.2 233.294 330.765 233.291 330.332C233.287 329.899 233.285 329.466 233.282 329.035C233.279 328.604 233.275 328.173 233.272 327.744C233.269 327.315 233.266 326.886 233.262 326.459C233.259 326.032 233.256 325.605 233.253 325.18C233.249 324.754 233.247 324.329 233.244 323.905C233.241 323.482 233.237 323.059 233.234 322.638C233.231 322.216 233.227 321.795 233.224 321.375C233.221 320.955 233.219 320.536 233.215 320.118C233.212 319.7 233.209 319.283 233.206 318.867C233.203 318.451 233.2 318.036 233.197 317.622C233.194 317.208 233.19 316.794 233.187 316.382C233.184 315.97 233.181 315.559 233.178 315.148C233.175 314.738 233.173 314.328 233.17 313.92C233.167 313.511 233.163 313.103 233.16 312.696C233.155 311.996 233.147 310.96 233.142 310.268C233.139 309.865 233.136 309.463 233.133 309.061C233.13 308.66 233.127 308.26 233.124 307.861C233.121 307.462 233.118 307.063 233.115 306.666C233.112 306.269 233.109 305.872 233.106 305.477C233.103 305.081 233.1 304.687 233.097 304.293C233.094 303.899 233.091 303.506 233.089 303.114C233.086 302.722 233.083 302.331 233.08 301.941C233.077 301.551 233.075 301.162 233.072 300.773C233.069 300.385 233.066 299.998 233.063 299.611C233.06 299.225 233.057 298.84 233.054 298.455C233.051 298.07 233.048 297.686 233.046 297.304C233.043 296.921 233.04 296.539 233.037 296.158C233.034 295.777 233.032 295.397 233.029 295.018C233.026 294.638 233.023 294.26 233.02 293.883C233.017 293.506 233.014 293.129 233.011 292.754C233.009 292.378 233.006 292.003 233.004 291.629C233.001 291.255 232.998 290.883 232.995 290.511C232.992 290.139 232.99 289.768 232.987 289.397C232.984 289.027 232.982 288.657 232.979 288.289C232.976 287.921 232.973 287.553 232.97 287.186C232.968 286.82 232.965 286.454 232.963 286.089C232.96 285.724 232.956 285.36 232.954 284.997C232.951 284.634 232.949 284.271 232.946 283.91C232.943 283.549 232.941 283.188 232.938 282.828C232.935 282.469 232.933 282.11 232.93 281.752C232.928 281.394 232.925 281.037 232.923 280.682C232.92 280.325 232.917 279.97 232.915 279.615C232.912 279.261 232.909 278.907 232.906 278.555C232.903 278.202 232.901 277.851 232.898 277.5C232.895 277.149 232.893 276.798 232.89 276.449C232.888 276.1 232.885 275.752 232.882 275.404C232.88 275.057 232.878 274.71 232.876 274.364C232.873 274.019 232.87 273.674 232.868 273.33C232.865 272.986 232.863 272.643 232.86 272.301C232.857 271.958 232.855 271.617 232.852 271.276C232.85 270.936 232.847 270.596 232.844 270.257C232.842 269.918 232.84 269.58 232.838 269.243C232.835 268.906 232.832 268.569 232.83 268.233C232.827 267.898 232.824 267.563 232.822 267.229C232.819 266.896 232.818 266.562 232.815 266.23C232.813 265.899 232.81 265.567 232.807 265.237C232.805 264.907 232.803 264.577 232.8 264.248C232.798 263.919 232.795 263.592 232.793 263.265C232.79 262.938 232.788 262.611 232.786 262.286C232.783 261.961 232.78 261.636 232.778 261.312C232.776 260.989 232.774 260.666 232.771 260.344C232.769 260.022 232.767 259.7 232.764 259.38C232.762 259.059 232.759 258.74 232.757 258.421C232.754 258.102 232.752 257.784 232.75 257.467C232.747 257.15 232.745 256.834 232.743 256.518C232.74 256.203 232.738 255.888 232.736 255.574C232.734 255.26 232.73 254.947 232.728 254.635C232.726 254.323 232.724 254.011 232.721 253.701C232.719 253.391 232.717 253.08 232.715 252.771C232.712 252.463 232.71 252.155 232.708 251.848L232.701 250.928C232.699 250.622 232.696 250.317 232.694 250.014C232.692 249.71 232.689 249.406 232.687 249.103C232.685 248.801 232.683 248.499 232.68 248.198C232.678 247.898 232.677 247.598 232.674 247.299C232.672 247 232.67 246.701 232.668 246.403C232.665 246.106 232.663 245.809 232.661 245.513C232.659 245.217 232.656 244.921 232.654 244.627C232.652 244.333 232.65 244.039 232.648 243.746C232.646 243.453 232.643 243.16 232.641 242.869C232.639 242.578 232.637 242.288 232.634 241.998C232.632 241.708 232.631 241.419 232.629 241.131C232.626 240.843 232.624 240.555 232.622 240.268C232.62 239.982 232.618 239.696 232.616 239.411C232.614 239.126 232.611 238.842 232.609 238.559C232.607 238.275 232.605 237.993 232.603 237.711C232.601 237.429 232.598 237.147 232.596 236.867C232.594 236.587 232.593 236.307 232.59 236.028C232.588 235.75 232.586 235.471 232.584 235.194C232.582 234.917 232.58 234.641 232.578 234.365C232.576 234.089 232.574 233.814 232.572 233.54C232.57 233.266 232.568 232.992 232.566 232.72C232.564 232.447 232.561 232.175 232.559 231.904C232.557 231.633 232.555 231.362 232.553 231.093C232.551 230.823 232.55 230.554 232.548 230.286C232.546 230.018 232.544 229.751 232.542 229.484C232.54 229.218 232.538 228.952 232.536 228.686C232.534 228.421 232.532 228.157 232.53 227.893C232.528 227.63 232.526 227.367 232.524 227.105C232.522 226.843 232.52 226.582 232.518 226.321C232.516 226.061 232.514 225.801 232.512 225.542C232.51 225.283 232.508 225.024 232.507 224.767C232.505 224.509 232.503 224.252 232.501 223.996C232.499 223.74 232.497 223.484 232.495 223.229C232.493 222.975 232.492 222.721 232.49 222.468C232.488 222.215 232.486 221.962 232.484 221.711C232.482 221.459 232.48 221.208 232.478 220.958C232.476 220.708 232.474 220.459 232.472 220.21C232.47 219.961 232.469 219.713 232.467 219.466C232.466 219.218 232.463 218.971 232.462 218.726C232.46 218.48 232.459 218.235 232.457 217.99C232.455 217.746 232.453 217.502 232.451 217.259C232.449 217.016 232.447 216.774 232.445 216.532C232.443 216.291 232.442 216.05 232.44 215.81C232.438 215.57 232.437 215.33 232.435 215.092C232.433 214.853 232.431 214.615 232.429 214.378C232.428 214.141 232.426 213.904 232.424 213.668C232.423 213.432 232.42 213.197 232.419 212.963C232.417 212.728 232.415 212.495 232.414 212.262C232.412 212.029 232.411 211.797 232.409 211.565C232.407 211.334 232.405 211.102 232.403 210.872C232.401 210.642 232.4 210.412 232.398 210.184C232.396 209.955 232.395 209.727 232.393 209.5C232.392 209.273 232.39 209.046 232.388 208.82C232.387 208.594 232.385 208.368 232.383 208.143C232.382 207.919 232.38 207.696 232.379 207.473C232.377 207.249 232.374 207.026 232.373 206.805C232.369 206.321 232.366 205.96 232.363 205.482C232.361 205.263 232.36 205.045 232.358 204.827C232.356 204.609 232.355 204.392 232.353 204.176C232.352 203.96 232.351 203.744 232.349 203.529C232.348 203.314 232.346 203.099 232.344 202.886C232.343 202.672 232.341 202.459 232.34 202.247C232.338 202.035 232.336 201.823 232.335 201.612C232.333 201.401 232.331 201.191 232.33 200.981C232.328 200.772 232.326 200.563 232.325 200.354C232.323 200.146 232.322 199.938 232.321 199.731C232.319 199.525 232.318 199.319 232.316 199.113C232.315 198.908 232.313 198.702 232.311 198.498C232.31 198.294 232.309 198.09 232.307 197.888C232.306 197.685 232.304 197.482 232.302 197.28C232.301 197.079 232.299 196.878 232.298 196.678C232.296 196.477 232.295 196.277 232.294 196.078C232.292 195.879 232.29 195.681 232.289 195.483C232.287 195.286 232.286 195.089 232.285 194.893C232.283 194.696 232.281 194.5 232.28 194.305C232.278 194.11 232.277 193.915 232.276 193.722C232.275 193.528 232.274 193.334 232.272 193.142C232.271 192.949 232.269 192.757 232.267 192.566C232.266 192.375 232.265 192.184 232.263 191.994C232.262 191.804 232.26 191.614 232.258 191.426C232.257 191.237 232.256 191.049 232.255 190.862C232.253 190.675 232.252 190.488 232.251 190.302C232.249 190.116 232.248 189.93 232.247 189.745C232.245 189.56 232.243 189.376 232.242 189.192C232.24 189.009 232.239 188.825 232.238 188.643C232.237 188.46 232.235 188.279 232.234 188.098C232.233 187.916 232.231 187.736 232.23 187.556C232.229 187.376 232.228 187.196 232.226 187.018C232.225 186.839 232.224 186.661 232.222 186.483C232.221 186.306 232.22 186.129 232.218 185.953C232.217 185.777 232.216 185.602 232.215 185.427C232.213 185.252 232.212 185.077 232.211 184.903C232.209 184.729 232.208 184.556 232.207 184.384C232.205 184.211 232.204 184.039 232.203 183.868C232.202 183.697 232.2 183.526 232.199 183.355C232.198 183.185 232.196 183.015 232.195 182.847C232.194 182.678 232.192 182.509 232.191 182.342C232.19 182.174 232.189 182.007 232.188 181.841C232.187 181.674 232.185 181.508 232.184 181.343C232.183 181.177 232.182 181.013 232.18 180.849C232.179 180.685 232.178 180.521 232.176 180.358C232.175 180.195 232.175 180.033 232.173 179.871C232.172 179.709 232.171 179.547 232.17 179.387C232.168 179.226 232.167 179.066 232.166 178.907C232.164 178.748 232.164 178.589 232.163 178.431C232.162 178.272 232.16 178.114 232.159 177.957C232.158 177.8 232.156 177.643 232.155 177.487C232.154 177.331 232.153 177.176 232.152 177.021C232.151 176.867 232.149 176.712 232.148 176.559C232.147 176.405 232.146 176.252 232.145 176.1C232.144 175.947 232.142 175.795 232.141 175.643C232.14 175.492 232.139 175.341 232.138 175.191C232.137 175.041 232.136 174.891 232.134 174.742C232.125 173.504 232.118 172.438 232.109 171.271C232.108 171.131 232.107 170.991 232.106 170.852C232.105 170.713 232.104 170.574 232.103 170.436C232.102 170.298 232.101 170.16 232.1 170.023C232.099 169.887 232.097 169.75 232.096 169.614C232.094 169.268 232.093 169.147 232.09 168.806C232.089 168.672 232.089 168.539 232.088 168.406C232.087 168.274 232.086 168.141 232.085 168.01C232.084 167.878 232.083 167.747 232.082 167.617C232.081 167.487 232.08 167.356 232.079 167.227C232.078 167.097 232.077 166.968 232.076 166.84C232.075 166.711 232.074 166.583 232.073 166.456C232.072 166.329 232.072 166.202 232.071 166.076C232.07 165.95 232.069 165.823 232.068 165.698C232.067 165.573 232.066 165.448 232.065 165.324C232.064 165.2 232.063 165.076 232.062 164.953C232.061 164.83 232.06 164.707 232.059 164.585C232.058 164.463 232.057 164.341 232.056 164.22C232.055 164.098 232.055 163.978 232.054 163.857C232.053 163.737 232.052 163.618 232.051 163.499C232.051 163.38 232.049 163.261 232.048 163.143C232.048 163.025 232.047 162.907 232.047 162.79C232.046 162.673 232.044 162.556 232.044 162.439C232.043 162.323 232.042 162.208 232.041 162.093C232.04 161.978 232.04 161.863 232.039 161.749C232.038 161.635 232.037 161.521 232.036 161.408C232.035 161.295 232.034 161.181 232.033 161.069C232.032 160.957 232.032 160.845 232.031 160.734C232.03 160.623 232.029 160.512 232.028 160.402C232.027 160.292 232.027 160.182 232.026 160.073C232.025 159.964 232.024 159.855 232.023 159.747C232.022 159.639 232.022 159.531 232.021 159.424C232.008 157.607 231.997 156.21 231.985 154.63C231.984 154.537 231.984 154.445 231.983 154.353C231.982 154.262 231.982 154.171 231.981 154.08C231.98 153.989 231.98 153.898 231.979 153.809C231.978 153.719 231.978 153.629 231.977 153.54C231.977 153.451 231.976 153.362 231.975 153.274C231.975 153.186 231.974 153.099 231.973 153.012C231.973 152.924 231.972 152.837 231.971 152.751C231.971 152.665 231.97 152.579 231.969 152.493C231.969 152.408 231.968 152.322 231.967 152.237C231.967 152.153 231.966 152.068 231.965 151.984C231.965 151.901 231.964 151.817 231.964 151.734C231.963 151.651 231.963 151.568 231.963 151.486C231.962 151.404 231.961 151.322 231.961 151.241C231.96 151.16 231.959 151.079 231.959 150.998C231.958 150.918 231.957 150.837 231.957 150.758C231.956 150.678 231.955 150.599 231.955 150.52C231.954 150.442 231.953 150.363 231.953 150.285C231.952 150.207 231.952 150.129 231.952 150.052C231.951 149.974 231.95 149.898 231.95 149.821C231.949 149.745 231.948 149.669 231.948 149.594C231.947 149.518 231.947 149.442 231.946 149.367C231.945 149.293 231.946 149.218 231.945 149.144C231.944 149.071 231.944 148.997 231.943 148.924C231.942 148.851 231.942 148.777 231.941 148.705C231.941 148.633 231.941 148.561 231.94 148.489C231.94 148.418 231.939 148.346 231.938 148.275C231.938 148.204 231.937 148.134 231.936 148.063C231.936 147.993 231.936 147.924 231.935 147.854C231.935 147.785 231.934 147.716 231.933 147.647C231.933 147.579 231.933 147.511 231.932 147.443C231.932 147.376 231.931 147.308 231.93 147.241C231.93 147.174 231.93 147.107 231.929 147.041C231.929 146.975 231.928 146.909 231.927 146.844C231.927 146.778 231.927 146.713 231.926 146.648C231.926 146.584 231.925 146.519 231.924 146.455C231.924 146.391 231.924 146.327 231.923 146.264C231.923 146.2 231.922 146.138 231.922 146.075C231.921 146.013 231.921 145.95 231.921 145.889C231.92 145.827 231.92 145.765 231.92 145.704C231.919 145.643 231.918 145.582 231.918 145.521C231.917 145.461 231.917 145.401 231.917 145.342C231.916 145.282 231.915 145.223 231.915 145.164C231.914 145.105 231.914 145.046 231.914 144.988C231.913 144.93 231.913 144.872 231.913 144.814C231.912 144.757 231.911 144.699 231.911 144.643C231.91 144.586 231.91 144.53 231.91 144.474C231.909 144.417 231.909 144.361 231.909 144.306C231.908 144.25 231.908 144.195 231.908 144.141C231.907 144.086 231.906 144.031 231.906 143.977C231.906 143.924 231.905 143.87 231.905 143.816C231.905 143.763 231.904 143.71 231.904 143.657C231.904 143.605 231.903 143.552 231.903 143.5C231.903 143.448 231.902 143.396 231.902 143.345C231.902 143.293 231.9 143.242 231.9 143.191C231.9 143.141 231.899 143.09 231.899 143.04C231.899 142.99 231.898 142.94 231.898 142.891C231.898 142.841 231.897 142.792 231.897 142.743C231.897 142.694 231.897 142.646 231.896 142.598C231.896 142.55 231.896 142.502 231.895 142.455C231.895 142.408 231.895 142.36 231.894 142.313C231.894 142.267 231.894 142.22 231.893 142.174C231.893 142.128 231.893 142.082 231.892 142.036C231.892 141.99 231.892 141.944 231.891 141.899C231.891 141.855 231.891 141.81 231.89 141.766C231.89 141.721 231.89 141.677 231.889 141.634C231.889 141.59 231.889 141.546 231.888 141.503C231.888 141.46 231.888 141.417 231.887 141.375C231.887 141.332 231.887 141.29 231.886 141.248C231.886 141.206 231.886 141.164 231.885 141.123C231.885 141.082 231.885 141.041 231.884 141C231.884 140.965 231.883 140.791 231.882 140.759C231.882 140.719 231.882 140.68 231.882 140.642C231.881 140.603 231.881 140.564 231.881 140.525C231.88 140.487 231.88 140.449 231.88 140.411C231.879 140.373 231.879 140.335 231.879 140.298C231.878 140.261 231.879 140.224 231.879 140.187C231.878 140.151 231.878 140.114 231.878 140.078C231.877 140.042 231.877 140.005 231.877 139.97C231.876 139.934 231.876 139.899 231.876 139.864C231.875 139.829 231.875 139.794 231.875 139.76C231.874 139.725 231.875 139.691 231.875 139.657C231.874 139.623 231.874 139.589 231.874 139.556L231.872 139.358C231.871 139.326 231.872 139.294 231.872 139.263C231.871 139.231 231.871 139.199 231.871 139.168C231.871 139.137 231.87 139.105 231.87 139.074C231.87 139.043 231.869 139.013 231.869 138.982C231.869 138.952 231.869 138.922 231.869 138.893C231.869 138.863 231.868 138.833 231.868 138.804C231.868 138.774 231.867 138.745 231.867 138.717C231.867 138.688 231.867 138.659 231.867 138.631C231.867 138.603 231.866 138.574 231.866 138.547C231.866 138.519 231.865 138.492 231.865 138.465C231.865 138.437 231.865 138.41 231.865 138.383C231.865 138.356 231.864 138.33 231.864 138.304C231.864 138.277 231.864 138.25 231.864 138.225L231.862 138.072C231.862 138.047 231.862 138.022 231.862 137.998C231.862 137.974 231.861 137.95 231.861 137.926C231.861 137.902 231.861 137.878 231.861 137.854C231.861 137.831 231.86 137.807 231.86 137.784C231.86 137.761 231.86 137.737 231.86 137.715C231.86 137.692 231.859 137.67 231.859 137.647C231.859 137.625 231.859 137.604 231.859 137.582C231.859 137.56 231.858 137.538 231.858 137.517C231.858 137.495 231.858 137.474 231.858 137.453C231.858 137.432 231.857 137.412 231.857 137.392C231.857 137.371 231.857 137.35 231.857 137.33C231.857 137.31 231.856 137.29 231.856 137.27C231.856 137.251 231.856 137.231 231.856 137.212C231.856 137.193 231.855 137.173 231.855 137.154V137.044C231.855 136.966 231.855 137.013 231.854 136.937C231.854 136.921 231.853 136.905 231.853 136.889H242.853Z" fill="white" stroke="white" stroke-width="3"/>
<circle cx="237.43" cy="128.454" r="9.98313" fill="white"/>
<path d="M222.02 185.38V164.957L217.143 164.957C202.13 164.957 186.6 178.217 186.6 196.735C186.6 234.839 258.692 249.242 258.692 274.466C258.692 299.691 211.748 307.693 211.748 338.023C211.748 368.354 246.27 367.668 246.27 383.671V401.046C256.253 401.046 256.253 390.987 256.253 383.671C256.253 362.409 224.017 353.874 224.017 338.023C224.017 322.172 273.971 308.226 273.971 274.466C273.971 240.707 202.587 215.025 202.587 196.735C202.587 190.181 209.217 185.38 211.961 185.38H222.02Z" fill="white" stroke="white"/>
<path d="M252.573 185.38V164.957L257.45 164.957C272.463 164.957 287.993 178.217 287.993 196.735C287.993 234.839 215.901 249.242 215.901 274.466C215.901 299.691 262.845 307.693 262.845 338.023C262.845 368.354 228.323 367.668 228.323 383.671V401.046C218.34 401.046 218.34 390.987 218.34 383.671C218.34 362.409 250.575 353.874 250.575 338.023C250.575 322.172 200.622 308.226 200.622 274.466C200.622 240.707 272.005 215.025 272.005 196.735C272.005 190.181 265.375 185.38 262.632 185.38H252.573Z" fill="white" stroke="white"/>
<path d="M128.682 118.471H206.795C206.795 132.417 218.454 142.704 222.417 143.314V156.117H181.951C177.607 156.117 170.596 150.401 170.596 145.448H158.479C152.611 145.448 147.81 139.199 147.81 134.017H140.037C134.245 134.017 128.682 127.692 128.682 123.424V118.471Z" fill="white" stroke="white" stroke-width="7"/>
<path d="M346.101 118.471H267.989C267.989 132.416 256.329 142.704 252.366 143.314V156.117H292.832C297.176 156.117 304.187 150.401 304.187 145.448H316.304C322.172 145.448 326.973 139.199 326.973 134.017H334.746C340.538 134.017 346.101 127.692 346.101 123.424V118.471Z" fill="white" stroke="white" stroke-width="7"/>
<path d="M10.9904 298.193C1.68083 263.449 0.488573 227.03 7.50585 191.751C14.5231 156.473 29.5619 123.282 51.4586 94.7455C73.3554 66.209 101.523 43.0922 133.783 27.1833C166.043 11.2745 201.531 3 237.5 3C273.469 3 308.957 11.2745 341.217 27.1833C373.477 43.0922 401.645 66.209 423.541 94.7455C445.438 123.282 460.477 156.473 467.494 191.751C474.511 227.03 473.319 263.449 464.01 298.193" stroke="white" stroke-width="5" stroke-linejoin="bevel" stroke-dasharray="7 7"/>
<path d="M440.583 354.75C420.001 390.399 390.399 420.001 354.75 440.583C319.101 461.165 278.663 472 237.5 472C196.337 472 155.899 461.165 120.25 440.583C84.6015 420.001 54.9987 390.399 34.4171 354.75" stroke="white" stroke-width="5" stroke-linejoin="bevel" stroke-dasharray="7 7"/>
<path d="M128.682 254.471C133.101 254.471 136.682 250.889 136.682 246.471C136.682 242.052 133.101 238.471 128.682 238.471C124.264 238.471 120.682 242.052 120.682 246.471C120.682 250.889 124.264 254.471 128.682 254.471ZM128.682 312.471L130.182 312.471L130.182 246.471L128.682 246.471L127.182 246.471L127.182 312.471L128.682 312.471Z" fill="white"/>
<path d="M98.6823 348.471C94.2641 348.471 90.6823 352.052 90.6823 356.471C90.6823 360.889 94.2641 364.471 98.6823 364.471C103.101 364.471 106.682 360.889 106.682 356.471C106.682 352.052 103.101 348.471 98.6823 348.471ZM98.6823 312.471L97.1823 312.471L97.1823 356.471L98.6823 356.471L100.182 356.471L100.182 312.471L98.6823 312.471Z" fill="white"/>
<path d="M157.682 348.471C153.264 348.471 149.682 352.052 149.682 356.471C149.682 360.889 153.264 364.471 157.682 364.471C162.101 364.471 165.682 360.889 165.682 356.471C165.682 352.052 162.101 348.471 157.682 348.471ZM157.682 312.471L156.182 312.471L156.182 356.471L157.682 356.471L159.182 356.471L159.182 312.471L157.682 312.471Z" fill="white"/>
<path d="M315.682 348.471C311.264 348.471 307.682 352.052 307.682 356.471C307.682 360.889 311.264 364.471 315.682 364.471C320.101 364.471 323.682 360.889 323.682 356.471C323.682 352.052 320.101 348.471 315.682 348.471ZM315.682 312.471L314.182 312.471L314.182 356.471L315.682 356.471L317.182 356.471L317.182 312.471L315.682 312.471Z" fill="white"/>
<path d="M374.682 348.471C370.264 348.471 366.682 352.052 366.682 356.471C366.682 360.889 370.264 364.471 374.682 364.471C379.101 364.471 382.682 360.889 382.682 356.471C382.682 352.052 379.101 348.471 374.682 348.471ZM374.682 312.471L373.182 312.471L373.182 356.471L374.682 356.471L376.182 356.471L376.182 312.471L374.682 312.471Z" fill="white"/>
<path d="M345.682 254.471C350.101 254.471 353.682 250.889 353.682 246.471C353.682 242.052 350.101 238.471 345.682 238.471C341.264 238.471 337.682 242.052 337.682 246.471C337.682 250.889 341.264 254.471 345.682 254.471ZM345.682 312.471L347.182 312.471L347.182 246.471L345.682 246.471L344.182 246.471L344.182 312.471L345.682 312.471Z" fill="white"/>
<circle cx="43.6823" cy="312.471" r="17" stroke="white" stroke-width="4"/>
<path d="M41.49 300.047H45.8747V310.278H56.1054V312.471V314.663H45.8747V324.894H41.49V314.663H31.2593V312.471V310.278H41.49V300.047Z" fill="white" stroke="white" stroke-width="2" stroke-linejoin="round"/>
<path d="M453.682 312.471L420.682 331.523L420.682 293.418L453.682 312.471Z" fill="white"/>
</g>
<defs>
<clipPath id="clip0_140_3">
<rect width="475" height="475" fill="white"/>
</clipPath>
</defs>
</svg>
