<svg width="475" height="475" viewBox="0 0 475 475" fill="none" xmlns="http://www.w3.org/2000/svg">
<rect width="475" height="475" fill="#1E1E1E"/>
<g clip-path="url(#clip0_0_1)">
<path d="M43.6823 312.471H431.682" stroke="white" stroke-width="6"/>
<circle cx="237.43" cy="128.454" r="11.4831" stroke="white" stroke-width="3"/>
<mask id="path-3-inside-1_0_1" fill="white">
<path d="M230.342 135.389H244.365C244.365 135.389 244.365 135.389 242.231 422.537C242.231 424.671 239.868 427.49 237.353 427.49C234.839 427.49 232.492 424.671 232.476 422.537C230.342 135.389 230.342 135.389 230.342 135.389Z"/>
</mask>
<path d="M230.342 135.389H244.365C244.365 135.389 244.365 135.389 242.231 422.537C242.231 424.671 239.868 427.49 237.353 427.49C234.839 427.49 232.492 424.671 232.476 422.537C230.342 135.389 230.342 135.389 230.342 135.389Z" fill="white" stroke="white" stroke-width="6" mask="url(#path-3-inside-1_0_1)"/>
<circle cx="237.43" cy="128.454" r="9.98313" fill="white"/>
<path d="M222.02 185.38V164.957L217.143 164.957C202.13 164.957 186.6 178.217 186.6 196.735C186.6 234.839 258.692 249.242 258.692 274.466C258.692 299.691 211.748 307.693 211.748 338.023C211.748 368.354 246.27 367.668 246.27 383.671V401.046C256.253 401.046 256.253 390.987 256.253 383.671C256.253 362.409 224.017 353.874 224.017 338.023C224.017 322.172 273.971 308.226 273.971 274.466C273.971 240.707 202.587 215.025 202.587 196.735C202.587 190.181 209.217 185.38 211.961 185.38H222.02Z" fill="white" stroke="white"/>
<path d="M252.573 185.38V164.957L257.45 164.957C272.463 164.957 287.993 178.217 287.993 196.735C287.993 234.839 215.901 249.242 215.901 274.466C215.901 299.691 262.845 307.693 262.845 338.023C262.845 368.354 228.323 367.668 228.323 383.671V401.046C218.34 401.046 218.34 390.987 218.34 383.671C218.34 362.409 250.575 353.874 250.575 338.023C250.575 322.172 200.622 308.226 200.622 274.466C200.622 240.707 272.005 215.025 272.005 196.735C272.005 190.181 265.375 185.38 262.632 185.38H252.573Z" fill="white" stroke="white"/>
<path d="M128.682 118.471H206.795C206.795 132.417 218.454 142.704 222.417 143.314V156.117H181.951C177.607 156.117 170.596 150.401 170.596 145.448H158.479C152.611 145.448 147.81 139.199 147.81 134.017H140.037C134.245 134.017 128.682 127.692 128.682 123.424V118.471Z" fill="white" stroke="white" stroke-width="7"/>
<path d="M346.101 118.471H267.989C267.989 132.416 256.329 142.704 252.366 143.314V156.117H292.832C297.176 156.117 304.187 150.401 304.187 145.448H316.304C322.172 145.448 326.973 139.199 326.973 134.017H334.746C340.538 134.017 346.101 127.692 346.101 123.424V118.471Z" fill="white" stroke="white" stroke-width="7"/>
<path d="M10.9904 298.193C1.68083 263.449 0.488573 227.03 7.50585 191.751C14.5231 156.473 29.5619 123.282 51.4586 94.7455C73.3554 66.209 101.523 43.0922 133.783 27.1833C166.043 11.2745 201.531 3 237.5 3C273.469 3 308.957 11.2745 341.217 27.1833C373.477 43.0922 401.645 66.209 423.541 94.7455C445.438 123.282 460.477 156.473 467.494 191.751C474.511 227.03 473.319 263.449 464.01 298.193" stroke="white" stroke-width="5" stroke-linejoin="bevel" stroke-dasharray="7 7"/>
<path d="M440.583 354.75C420.001 390.399 390.399 420.001 354.75 440.583C319.101 461.165 278.663 472 237.5 472C196.337 472 155.899 461.165 120.25 440.583C84.6015 420.001 54.9987 390.399 34.4171 354.75" stroke="white" stroke-width="5" stroke-linejoin="bevel" stroke-dasharray="7 7"/>
<path d="M128.682 254.471C133.101 254.471 136.682 250.889 136.682 246.471C136.682 242.052 133.101 238.471 128.682 238.471C124.264 238.471 120.682 242.052 120.682 246.471C120.682 250.889 124.264 254.471 128.682 254.471ZM128.682 312.471L130.182 312.471L130.182 246.471L128.682 246.471L127.182 246.471L127.182 312.471L128.682 312.471Z" fill="white"/>
<path d="M98.6823 348.471C94.2641 348.471 90.6823 352.052 90.6823 356.471C90.6823 360.889 94.2641 364.471 98.6823 364.471C103.101 364.471 106.682 360.889 106.682 356.471C106.682 352.052 103.101 348.471 98.6823 348.471ZM98.6823 312.471L97.1823 312.471L97.1823 356.471L98.6823 356.471L100.182 356.471L100.182 312.471L98.6823 312.471Z" fill="white"/>
<path d="M157.682 348.471C153.264 348.471 149.682 352.052 149.682 356.471C149.682 360.889 153.264 364.471 157.682 364.471C162.101 364.471 165.682 360.889 165.682 356.471C165.682 352.052 162.101 348.471 157.682 348.471ZM157.682 312.471L156.182 312.471L156.182 356.471L157.682 356.471L159.182 356.471L159.182 312.471L157.682 312.471Z" fill="white"/>
<path d="M315.682 348.471C311.264 348.471 307.682 352.052 307.682 356.471C307.682 360.889 311.264 364.471 315.682 364.471C320.101 364.471 323.682 360.889 323.682 356.471C323.682 352.052 320.101 348.471 315.682 348.471ZM315.682 312.471L314.182 312.471L314.182 356.471L315.682 356.471L317.182 356.471L317.182 312.471L315.682 312.471Z" fill="white"/>
<path d="M374.682 348.471C370.264 348.471 366.682 352.052 366.682 356.471C366.682 360.889 370.264 364.471 374.682 364.471C379.101 364.471 382.682 360.889 382.682 356.471C382.682 352.052 379.101 348.471 374.682 348.471ZM374.682 312.471L373.182 312.471L373.182 356.471L374.682 356.471L376.182 356.471L376.182 312.471L374.682 312.471Z" fill="white"/>
<path d="M345.682 254.471C350.101 254.471 353.682 250.889 353.682 246.471C353.682 242.052 350.101 238.471 345.682 238.471C341.264 238.471 337.682 242.052 337.682 246.471C337.682 250.889 341.264 254.471 345.682 254.471ZM345.682 312.471L347.182 312.471L347.182 246.471L345.682 246.471L344.182 246.471L344.182 312.471L345.682 312.471Z" fill="white"/>
<circle cx="43.6823" cy="312.471" r="17" stroke="white" stroke-width="4"/>
<path d="M41.49 300.048H45.8747V310.278H56.1054V312.471V314.663H45.8747V324.894H41.49V314.663H31.2593V312.471V310.278H41.49V300.048Z" fill="white" stroke="white" stroke-width="2" stroke-linejoin="round"/>
<path d="M453.682 312.471L420.682 331.523L420.682 293.418L453.682 312.471Z" fill="white"/>
</g>
<defs>
<clipPath id="clip0_0_1">
<rect width="475" height="475" fill="white"/>
</clipPath>
</defs>
</svg>
